<?xml version="1.0" standalone="no"?>
<!DOCTYPE svg PUBLIC "-//W3C//DTD SVG 20010904//EN"
 "http://www.w3.org/TR/2001/REC-SVG-20010904/DTD/svg10.dtd">
<svg version="1.0" xmlns="http://www.w3.org/2000/svg"
 width="500.000000pt" height="500.000000pt" viewBox="0 0 500.000000 500.000000"
 preserveAspectRatio="xMidYMid meet">

<g transform="translate(0.000000,500.000000) scale(0.100000,-0.100000)"
fill="#000000" stroke="none">
<path d="M2230 4083 c-49 -50 -157 -107 -237 -123 -72 -15 -227 -19 -321 -9
-45 5 -146 25 -225 43 -238 57 -258 60 -382 60 -104 0 -131 -4 -198 -27 -182
-63 -308 -155 -377 -276 -27 -46 -41 -60 -58 -61 -34 0 -89 -26 -118 -55 -36
-36 -24 -42 28 -12 52 31 103 39 104 17 2 -60 16 -91 50 -107 44 -22 81 -10
107 35 l19 33 -22 24 c-13 14 -44 32 -69 42 -25 9 -48 18 -49 19 -12 8 61 114
109 158 76 70 127 99 256 143 99 33 117 37 218 36 98 0 136 -6 340 -53 227
-54 232 -54 385 -54 215 1 335 35 430 120 37 33 67 80 57 90 -1 2 -23 -18 -47
-43z m-1694 -452 c51 -23 58 -34 42 -61 -18 -28 -72 -27 -92 2 -19 27 -21 78
-3 78 6 0 31 -9 53 -19z"/>
<path d="M1384 3718 c-24 -11 -44 -48 -44 -78 0 -14 -19 -29 -67 -52 -76 -37
-153 -105 -153 -134 0 -11 5 -25 12 -32 16 -16 139 -15 203 1 46 12 52 12 77
-6 31 -23 45 -16 64 28 9 23 28 40 69 60 30 16 73 45 95 65 78 72 37 120 -89
105 -55 -6 -59 -5 -89 24 -32 33 -44 36 -78 19z"/>
<path d="M1402 3313 c-40 -19 -46 -31 -78 -136 -39 -127 -25 -209 59 -347 22
-36 44 -69 49 -75 13 -14 -8 40 -26 67 -33 51 -68 181 -64 236 10 118 49 70
87 -108 35 -168 39 -241 32 -635 -8 -430 -4 -488 21 -345 10 52 38 156 63 230
95 278 127 406 129 510 1 118 -12 149 -106 242 -62 62 -68 71 -68 109 0 53 26
144 47 160 13 12 22 7 59 -34 89 -98 126 -216 105 -332 -6 -32 -9 -61 -6 -63
14 -14 48 100 53 174 4 78 3 85 -28 143 -37 69 -138 184 -181 206 -37 20 -106
19 -147 -2z"/>
<path d="M2330 3121 c-39 -20 -53 -51 -24 -51 10 0 38 7 61 16 24 9 46 14 50
10 4 -3 1 -72 -6 -154 -6 -81 -15 -249 -18 -374 l-6 -226 -56 -9 c-39 -5 -57
-13 -59 -24 -2 -9 5 -18 15 -21 28 -6 371 6 378 14 4 4 5 14 2 23 -5 11 -23
15 -77 15 l-70 0 0 59 c0 32 7 173 15 312 8 140 13 281 12 314 l-2 59 60 11
c33 5 59 15 58 20 -3 10 -119 22 -233 24 -46 1 -76 -4 -100 -18z"/>
<path d="M2004 3119 c-39 -11 -82 -53 -102 -99 -24 -55 -19 -169 13 -275 43
-141 45 -129 -22 -148 -113 -31 -169 -94 -167 -188 1 -126 125 -196 270 -154
43 12 70 29 103 61 l44 44 -6 82 c-4 46 -9 97 -13 114 l-6 31 64 7 c85 8 140
25 135 39 -3 8 -20 10 -53 7 -27 -2 -75 -5 -107 -5 l-59 0 -39 104 c-62 166
-71 256 -30 320 21 33 71 -32 86 -111 11 -58 25 -71 65 -61 29 8 35 14 38 40
8 78 -34 153 -102 184 -45 20 -65 22 -112 8z m-12 -624 c26 -104 24 -141 -11
-176 -54 -54 -132 -34 -166 41 -46 103 27 215 134 207 22 -2 27 -10 43 -72z"/>
<path d="M3044 3121 c-54 -13 -92 -43 -120 -94 -25 -46 -26 -56 -21 -136 3
-56 15 -118 35 -179 16 -50 27 -94 23 -96 -3 -2 -26 -9 -51 -16 -120 -31 -175
-98 -168 -200 7 -103 70 -154 188 -155 51 0 77 6 122 28 97 48 121 119 88 259
-7 27 -11 51 -9 53 2 1 44 8 93 14 92 11 119 22 100 41 -8 8 -25 8 -55 1 -24
-6 -69 -11 -100 -11 -45 0 -58 4 -64 18 -57 144 -87 244 -88 297 -1 64 19 120
42 120 23 0 52 -49 70 -116 16 -62 18 -64 46 -61 50 5 55 9 55 52 0 113 -92
203 -186 181z m-42 -616 c39 -141 13 -214 -78 -215 -93 0 -145 129 -87 218 18
29 89 63 123 60 21 -3 27 -12 42 -63z"/>
<path d="M1680 1470 c-7 -12 -8 -20 -2 -16 8 5 42 -59 42 -79 0 -3 -16 -5 -35
-5 -21 0 -35 5 -35 13 0 8 -4 7 -10 -3 -15 -24 -13 -25 38 -22 43 3 49 1 60
-22 10 -22 32 -37 32 -21 0 5 -71 168 -75 173 -2 2 -9 -6 -15 -18z"/>
<path d="M1975 1468 c-15 -14 -28 -38 -32 -60 -5 -32 -1 -41 25 -68 17 -16 39
-30 49 -29 14 0 14 2 3 6 -35 13 -50 37 -50 80 0 33 6 50 25 68 30 31 15 33
-20 3z"/>
<path d="M2058 1483 c6 -2 18 -2 25 0 6 3 1 5 -13 5 -14 0 -19 -2 -12 -5z"/>
<path d="M2300 1400 l0 -90 53 2 c50 1 50 2 10 5 -43 4 -43 5 -43 43 0 36 2
39 33 43 l32 4 -32 1 c-31 2 -33 5 -33 36 0 19 6 37 13 39 6 3 2 6 -10 6 -22
1 -23 -2 -23 -89z"/>
<path d="M2368 1483 c6 -2 18 -2 25 0 6 3 1 5 -13 5 -14 0 -19 -2 -12 -5z"/>
<path d="M2602 1398 l2 -93 5 79 6 79 50 -64 c28 -34 55 -70 62 -78 10 -13 12
3 11 79 -2 94 -2 94 -7 27 l-6 -69 -53 66 c-29 36 -57 66 -62 66 -6 0 -9 -38
-8 -92z"/>
<path d="M2956 1465 c-26 -24 -35 -71 -20 -110 7 -17 62 -50 71 -42 2 3 -4 8
-15 11 -47 15 -53 120 -9 151 12 8 17 15 11 15 -6 0 -23 -11 -38 -25z"/>
<path d="M3048 1483 c7 -3 16 -2 19 1 4 3 -2 6 -13 5 -11 0 -14 -3 -6 -6z"/>
<path d="M3280 1437 c18 -33 30 -68 30 -90 0 -52 17 -46 21 7 2 24 1 42 -2 40
-3 -2 -16 19 -29 46 -13 28 -29 50 -37 50 -9 0 -4 -17 17 -53z"/>
<path d="M3366 1475 c-9 -26 -7 -32 5 -12 6 10 9 21 6 23 -2 3 -7 -2 -11 -11z"/>
<path d="M2076 1383 c-3 -3 -6 -22 -6 -41 0 -27 3 -32 13 -24 7 6 13 22 15 36
2 25 -10 41 -22 29z"/>
<path d="M1616 1323 c-6 -14 -5 -15 5 -6 7 7 10 15 7 18 -3 3 -9 -2 -12 -12z"/>
<path d="M4594 1328 c-24 -11 -44 -48 -44 -79 0 -15 17 -28 65 -50 36 -17 65
-34 65 -38 0 -18 -62 -102 -108 -147 -61 -60 -140 -104 -260 -145 -152 -53
-270 -50 -532 12 -242 58 -260 61 -407 60 -167 -2 -217 -10 -317 -51 -79 -33
-166 -106 -166 -139 0 -15 12 -8 53 32 91 91 214 127 431 127 135 0 146 -2
416 -65 290 -67 430 -59 633 39 110 52 204 137 256 229 29 50 36 57 63 57 36
0 113 42 122 66 10 27 0 27 -41 0 -21 -14 -53 -28 -71 -32 -27 -5 -32 -4 -32
12 0 37 -21 94 -38 102 -31 16 -67 20 -88 10z m76 -38 c12 -12 20 -33 20 -55
l0 -34 -42 15 c-50 18 -68 31 -68 53 0 42 56 55 90 21z"/>
</g>
</svg>
